/* XPM */
static char *_7e7aa5c8ece4ac5dab029e88bd39db9XhLkkvek9FgJA2KN[] = {
/* columns rows colors chars-per-pixel */
"32 32 239 2 ",
"   c #0A0400",
".  c #180900",
"X  c #1D1A07",
"o  c #2D0800",
"O  c #2B2418",
"+  c #451900",
"@  c #4E3300",
"#  c #543B06",
"$  c #433E2B",
"%  c #5A4A0E",
"&  c #744E0E",
"*  c #5B5022",
"=  c #745C20",
"-  c #766839",
";  c #6C6653",
":  c #955C02",
">  c #83571C",
",  c #844C00",
"<  c #9E630D",
"1  c #AF771E",
"2  c #886D35",
"3  c #947739",
"4  c #8F7128",
"5  c #B67E2C",
"6  c #B27D24",
"7  c #AB7A34",
"8  c #B67E3C",
"9  c #A67527",
"0  c #865E45",
"q  c #906B52",
"w  c #A87747",
"e  c #A97E4E",
"r  c #BF841C",
"t  c #B98329",
"y  c #B68434",
"u  c #B88737",
"i  c #BC923A",
"p  c #C28B2E",
"a  c #C38A2B",
"s  c #C48C34",
"d  c #C68D39",
"f  c #C79333",
"g  c #CA943B",
"h  c #CE9A3E",
"j  c #C69836",
"k  c #C9992E",
"l  c #D8A336",
"z  c #E5B33F",
"x  c #958553",
"c  c #938452",
"v  c #AA8A49",
"b  c #BD8D45",
"n  c #B98C4A",
"m  c #B49443",
"M  c #BA9943",
"N  c #BD944C",
"B  c #BB9A4B",
"V  c #BB9646",
"C  c #AA9353",
"Z  c #BC9B5B",
"A  c #B69955",
"S  c #AC8A53",
"D  c #BEA356",
"F  c #8B8167",
"G  c #9D8766",
"H  c #998773",
"J  c #BD9A64",
"K  c #A89372",
"L  c #A99361",
"P  c #BDA668",
"I  c #BEAC7A",
"U  c #C49A43",
"Y  c #CC9A43",
"T  c #C99649",
"R  c #D29B45",
"E  c #D29C4C",
"W  c #D89C46",
"Q  c #C39B52",
"!  c #C79957",
"~  c #D69E53",
"^  c #C58F45",
"/  c #CBA24A",
"(  c #C5A348",
")  c #D3A344",
"_  c #D2A54C",
"`  c #D9A94B",
"'  c #C8A65A",
"]  c #D3A253",
"[  c #DAAC54",
"{  c #D9A55C",
"}  c #D7AA57",
"|  c #DEB55C",
" . c #DBB859",
".. c #DEB446",
"X. c #E1AA4D",
"o. c #E2B44D",
"O. c #E4AB5D",
"+. c #E4AD58",
"@. c #E8BC5E",
"#. c #E6B95A",
"$. c #C79D61",
"%. c #C6AA67",
"&. c #D8AB68",
"*. c #DDB662",
"=. c #DCBD6C",
"-. c #D7B66A",
";. c #C7AC74",
":. c #CBB47C",
">. c #C7B779",
",. c #D4BA72",
"<. c #DCBD7B",
"1. c #D4B779",
"2. c #C5B06F",
"3. c #E5B263",
"4. c #EABB62",
"5. c #E7BD67",
"6. c #F3BC67",
"7. c #E2BC73",
"8. c #E3BD7A",
"9. c #E8BB79",
"0. c #E2AE65",
"q. c #E9C057",
"w. c #DEC26B",
"e. c #DBC273",
"r. c #DDC47B",
"t. c #E4C365",
"y. c #EAC263",
"u. c #E4C36D",
"i. c #E9C36C",
"p. c #F3C36A",
"a. c #F4C96A",
"s. c #E3C474",
"d. c #E3C47C",
"f. c #E3C97C",
"g. c #EBC677",
"h. c #F2C474",
"j. c #FFCC77",
"k. c #F2C27B",
"l. c #F8CB77",
"z. c #F8D27B",
"x. c #BDB388",
"c. c #B1AD8E",
"v. c #C3AC8C",
"b. c #CFBF8B",
"n. c #CBB787",
"m. c #D7B985",
"M. c #E4BC84",
"N. c #C5A8A4",
"B. c #E4BFAD",
"V. c #DDC483",
"C. c #D4C18D",
"Z. c #DBC489",
"A. c #DDD48C",
"S. c #D9C693",
"D. c #DACC97",
"F. c #D9D29C",
"G. c #E2C582",
"H. c #EBC682",
"J. c #E4CC85",
"K. c #EBCB84",
"L. c #E3CB8B",
"P. c #ECCD8B",
"I. c #E4C68E",
"U. c #F4CC8D",
"Y. c #F5CD85",
"T. c #E5D18D",
"R. c #EBD28E",
"E. c #EAD587",
"W. c #F7D489",
"Q. c #E4CC94",
"!. c #EBCD93",
"~. c #E5C898",
"^. c #F1CA95",
"/. c #F4CE9F",
"(. c #EAD395",
"). c #E3D199",
"_. c #EAD799",
"`. c #F4D294",
"'. c #F9D697",
"]. c #E9E49C",
"[. c #FFE19A",
"{. c #D9C9A4",
"}. c #DAD3A8",
"|. c #D8CBB8",
" X c #C9C4B1",
".X c #EACCA3",
"XX c #F3CCA2",
"oX c #E3D4A2",
"OX c #ECD4A4",
"+X c #E9DAA8",
"@X c #F1DDA3",
"#X c #F7D9A9",
"$X c #E0CFB1",
"%X c #E1DAB5",
"&X c #E7DBB7",
"*X c #F5DAB5",
"=X c #FAE6A7",
"-X c #FFF2AF",
";X c #EDE5B5",
":X c #EDE8B6",
">X c #F4E3B5",
",X c #FDE4B4",
"<X c #FEEBB3",
"1X c #FEEBBC",
"2X c #F5EAB9",
"3X c #FEF2BC",
"4X c #FAF3B9",
"5X c #E6DFC8",
"6X c #F6D8C6",
"7X c #EBE7C2",
"8X c #FFEBC4",
"9X c #F3EDCB",
"0X c #FEECCA",
"qX c #F5E9C6",
"wX c #FDF4C3",
"eX c #FFFBC4",
"rX c #FFF4CD",
"tX c #FFFCCB",
"yX c #F5F3C0",
"uX c #F3ECD2",
"iX c #F2EDDC",
"pX c #FFF3D3",
"aX c #FFFCD4",
"sX c #FFFDDB",
"dX c #FBF5DB",
"fX c #F8E8E3",
"gX c #EEF8EC",
"hX c #FFFDE4",
"jX c #FFFDEB",
"kX c #FAF9E9",
"lX c #EBFFF2",
"zX c #ECFEFC",
"xX c #FDF4F2",
"cX c #F4FDF2",
"vX c #FEFEF3",
"bX c #FEF5FD",
"nX c #F3FEFE",
"mX c #FDFDFD",
"MX c #F4ECFF",
/* pixels */
"vXcXcXmXvXvXvXjX$XB.qXjXkXvXmXlXzXzXzXnXnXhXaXtXeX&XbXbXMXnXnXlX",
"mXmXmXmXvXvXhXhXv.G v.dXjXiXgXlXzXzXnXnXvXjXtX_.;.K N.MXbXmXzXlX",
"mXmXmXmXvXjXsXaXm.2 2 ~.aXhXjXvXjXvXvXvXhXrX).A S e q fXmXmXgXlX",
"mXmXnXmXvXjXaXwX<.3 = v Z.1XrXqXsXaXhXhX2XZ.D i Q Z 0 6XmXxXcXcX",
"mXmXmXmXvXjXrX#XZ Q ^ V m Z %.J 1.:.m.I.;.Q u y 9 ^ 0 B.xXiXvXvX",
"mXmXmXvXjXrXOX<.&.#.4.` U m m ^ u u b v 7 y t : , 7 w XXjXfXvXcX",
"bXbXmXiX}.F.e.[ z z l a g E ! ! ] R Y d s g 6 : < 8 n *XhXjXvXcX",
"bXmXjX|.x.P -. .k z l r a { { ! E p d W ^ a 1 < d ^ w ,XdXvXvXvX",
"pXsX%Xx.}.I = & t R s s W 6.{ 6.Y ) g f U E T E ~ 8 A n.pXjXvXnX",
"tXaX}.wX:XC.% o m / O.W { O.{ 9 9 U / U U b ^ Q ^ 8 u J *XjXmXmX",
"sXaX}.tXF.>.y 4 ] _ h.~ w > w + o & B ' ' %.$.$.&.n v A S.jXmXmX",
"sXqXaXsX:XC.F.=XK.s.k.&.S & q # # v E.=X-X<X<X<X#X&.N A :.sXxXmX",
"tX:XtX7Xc.; K H n.XXm.M.m.J n.L I +X4X-X<X1X1X1X4X<.M M 2.aXvXmX",
"yXyX5Xx.X .   X q qXOX).S.#X].+XwXaXtX4XeXrX0X0XeXJ.M M ' >XkXbX",
"&XiXiX|.O     O H sXaX*XC.4X4XtX:X9X2XyXtXrX0X0X3XH.( j ' 1.kXxX",
"uX5XiX X; $ ; F |.0X*Xb.n.eX:X:XaXaX4X:X2X+XOX*X'.5.i h U Z pXkX",
"dX5XqX%Xc * - x n._.#Xb.>.A.].].;X@X].T.E.f.f.a.t.l k ) ( ' #XtX",
"9X5X&X}.c % # # = q v x C >.A.E.T.T.A.r.f.g.z.a...l k h U Z P.eX",
"jXpX0X>X).:.%.%.v A P %.>.r.R._.L.J.r.r.f.E.z.a.` k p g b N 8.<X",
"pXqX{.b.Z.L.G.G.R.!.P.(._.T.J.J.J.J.V.V.K.K.g.O.U p s s Y ~ -.=X",
"dX0X~.:.M.d.s.9.8.9.8.^.`.K.H.d.r.d.V.d.L.U.7.] d 5 a d ] 3.-.'.",
"aX#Xm.%.%.-.9.h.k.9.9.Y.Y.d.7.g.-.,.d.f.R.`.9.&.8 5 d d O.p.| [.",
"tX#X1.&.( ] +.` 3.0.3.0.{ ] } } *.s.f.f.P.'.H.&.^ R +.X.6.p.Y z.",
"3XI.G.K.3.` R 5 5 5 p y y u T _  .u.s.e.d.K.8.! ~ O.j.6.p.y.i a.",
"4X!.<.g.i.q.o.h f 6 1 t R +.@.y.t.w.w.w.,.<.8.s.9.j.j.j.a.[ /  .",
"<XI.,.=.t.#.q.#.o.h s h [ @.4.@.y.t.t.e.f.G.H.H.W.k.5.6.h.| ( ( ",
"OXC.m.d.s.t.y.q.#._ Y [ 4.p.i.5.t.w.u.e.f.J.P.P.Y.W.j.h.=.B B %.",
"&X{.S.A.f.w.i.t. .} } *.5.g.i.i.i.i.f.J.T.R.R.!.H.'.W.<.D A 2.].",
"jXuX&XF.e.e.e.e.=.5.=.g.s.7.s.g.Y.Y.R.(.(.).(.).(.r.$.C P C.2XaX",
"vXvXhX9X}.A.r.e.,.,.<.M.G.V.J.R.P.U.!.!.).D.).).Q.C.;.n.*XaXhXjX",
"mXmXvXjXaX4X].D.J.V.Z.I.Q.Q.(./.^.^./.~.oXoXoXoXoX>X1XaXhXjXjXjX",
"mXnXmXjXsXaXtXeX3X,X_./.#X).Q.~.XXXX.XOX+X&X;X>XeXtXaXaXjXvXxXmX"
};
