/* XPM */
static char *_f4f182c0b8245effeb72ba5a5a64876qENzkGLP8xrih02Q[] = {
/* columns rows colors chars-per-pixel */
"32 32 70 1 ",
"  c #070402",
". c #0B0603",
"X c #0E0905",
"o c #100704",
"O c #130B06",
"+ c #1A0D07",
"@ c #150E08",
"# c #1A0E09",
"$ c #171009",
"% c #1C120B",
"& c #210F09",
"* c #20140B",
"= c #23140A",
"- c #22150B",
"; c #21130D",
": c #22130D",
"> c #24130C",
", c #20150C",
"< c #20170D",
"1 c #27140C",
"2 c #27150C",
"3 c #26160C",
"4 c #25150E",
"5 c #25170F",
"6 c #28150C",
"7 c #28140D",
"8 c #29170D",
"9 c #2D170E",
"0 c #22180D",
"q c #25180C",
"w c #24190E",
"e c #24180F",
"r c #2A190C",
"t c #281A0F",
"y c #2E180D",
"u c #2F1B0F",
"i c #34170F",
"p c #30180F",
"a c #31180F",
"s c #321A0E",
"d c #2A1610",
"f c #241911",
"g c #251A11",
"h c #271A12",
"j c #271C12",
"k c #281A11",
"l c #2B1B11",
"z c #2B1A12",
"x c #2D1B10",
"c c #281D13",
"v c #2E1C14",
"b c #311B12",
"n c #351A10",
"m c #311C10",
"M c #311D13",
"N c #351E12",
"B c #341D14",
"V c #341F17",
"C c #391D14",
"Z c #2A2017",
"A c #2E2017",
"S c #332216",
"D c #362014",
"F c #372015",
"G c #3A2115",
"H c #392116",
"J c #382316",
"K c #372218",
"L c #3D2218",
"P c #3F2619",
/* pixels */
"#%@XXO@%6*++%@OOo@%DJvvVz52;O.OO",
"...OX#y2N92%*&OO..+McKJkhMy;O...",
"%e%@.O**%M=%+ooXX@%ykx;%%B;%@o%%",
"FPc%.X+#2x&Oo.@$%v%%2>%%:6%%+.%v",
"JLJ0@O&2BJ>..@Nk*q#kM&@xMts6+.O%",
"kte2+O%ik%%+O+aq@+2B6%dxq%e6%O.@",
"%00t%@%yM%xs#O@+X.#6O#>%@$qt*%.O",
"#t%@X@%xB2n%%+X .X+&#O&d2tthtqO ",
"X++@XX@2;htq%*@..X X$OO%;;s22$@.",
" @6+XoO2@%e2$+oO.:XXO.X$%%%*O .X",
"@6=O..O###*%$..X.bck+OX.@$$+..$%",
"y6#OOX.O$$%%@Xo@Okv%;;$X@%%%@+6M",
"*@OOOoOOO$$O.OOo.;ccj%%XX%@+@+%s",
".+ik+o@O$O$X .XO2zccu;%..OOX.O+;",
"+BNkh%OOOOXX...%kjj;**%X....XX..",
"6c2hJN+OoXXX .#*%;;#%@%XOX  ....",
"@#:MMt%%$$%+OOvFcvr*#2$OO%@**@%O",
"o@$y*c;*eJet+@$hv6++:&#O%%0vt%+O",
"OOO#%ktqDvc*@.%;6@OO@OXX;%%;*+@o",
"+#X+$%6G0$%%@ %;2@OX..X@jh%%o.O@",
"e%d2%k%yt%*6+ X%#%O... @0e@XO+:e",
"M9h:v**+&r&=#OX%++O.. X%ete$.@*q",
"6e2;t6*OOOO.&6.OXO ..#e6Csq*+@O%",
"OOO@;%2%+O@%2b+ .O. @%:hetAv;+.O",
" .O$OX@29=%%MCx>...O$$%%%$%q%@XX",
".X.XXXO=+=abd2%+.oO++0%%@$*$@@##",
" @%OX.OX@@$y=+o.X$#O$$%%+%6$O%h$",
".O;%%OOX@qe+. O+%e%@@#+*O@6+$%%Z",
"oeyy5$%OOq+XX$+%eq6*O@OOXO$O@+@@",
"%*txk*#o.O...$%*r+@@+o.......XOX",
"tt9%+Oo.     .X$@++e*o..+@.   X+",
"sr#@X...X.  ..XO@*eSvt++*@X  .hM"
};
