/* XPM */
static char *_476e42102e24135bef3b3daac0bfb19k4FtkhDeMKRIEQ5Y[] = {
/* columns rows colors chars-per-pixel */
"32 32 151 2 ",
"   c None",
".  c #030201",
"X  c #0A0605",
"o  c #0D0906",
"O  c #0E0B09",
"+  c #120D0A",
"@  c #16100D",
"#  c #1B130E",
"$  c #161311",
"%  c #1D1611",
"&  c #1E1915",
"*  c #211611",
"=  c #241A14",
"-  c #2A1D16",
";  c #251D1A",
":  c #291F1A",
">  c #2E2017",
",  c #27201C",
"<  c #2D211A",
"1  c #33241C",
"2  c #39271D",
"3  c #37281F",
"4  c #3A291F",
"5  c #312721",
"6  c #332923",
"7  c #3D2C22",
"8  c #352E2B",
"9  c #3B322C",
"0  c #3A3331",
"q  c #422E22",
"w  c #443025",
"e  c #4A3326",
"r  c #43342B",
"t  c #4C3629",
"y  c #46382F",
"u  c #4D392D",
"i  c #503527",
"p  c #513728",
"a  c #543B2C",
"s  c #5A3E2E",
"d  c #4D3B30",
"f  c #553E31",
"g  c #583F30",
"h  c #5D402F",
"j  c #544136",
"k  c #5C4334",
"l  c #534339",
"z  c #5C463A",
"x  c #5C493E",
"c  c #634533",
"v  c #694734",
"b  c #654937",
"n  c #6B4936",
"m  c #644738",
"M  c #624839",
"N  c #664938",
"B  c #674B3A",
"V  c #624B3E",
"C  c #634B3E",
"Z  c #634D3F",
"A  c #674D3C",
"S  c #654B3C",
"D  c #684938",
"F  c #684A38",
"G  c #684B39",
"H  c #6A4A38",
"J  c #694B3A",
"K  c #684B3B",
"L  c #6D4C39",
"P  c #684C3C",
"I  c #6A4F3E",
"U  c #6C4C3A",
"Y  c #704C38",
"T  c #714F3B",
"R  c #724E3A",
"E  c #784F3C",
"W  c #6F513E",
"Q  c #73503C",
"!  c #75513C",
"~  c #77543F",
"^  c #74523D",
"/  c #78553E",
"(  c #7A543E",
")  c #634D41",
"_  c #654E40",
"`  c #624C40",
"'  c #6D5140",
"]  c #695346",
"[  c #6A5347",
"{  c #6D5241",
"}  c #6F5749",
"|  c #6D574A",
" . c #705340",
".. c #725441",
"X. c #725443",
"o. c #725744",
"O. c #705647",
"+. c #725746",
"@. c #725747",
"#. c #745542",
"$. c #7B5640",
"%. c #7B5641",
"&. c #7A5842",
"*. c #7C5843",
"=. c #7C5943",
"-. c #7A5944",
";. c #7A5A47",
":. c #7D5A45",
">. c #715748",
",. c #755949",
"<. c #775948",
"1. c #72594C",
"2. c #735B4C",
"3. c #705A4F",
"4. c #745949",
"5. c #785B49",
"6. c #7E5B49",
"7. c #7D5B4A",
"8. c #7C5D49",
"9. c #7E5C49",
"0. c #7E5E49",
"q. c #785C4C",
"w. c #785E4F",
"e. c #7B5F4E",
"r. c #7D5D4A",
"t. c #765F54",
"y. c #7A6253",
"u. c #796154",
"i. c #7D6455",
"p. c #7D6252",
"a. c #815740",
"s. c #835C44",
"d. c #895E45",
"f. c #825E48",
"g. c #876047",
"h. c #896147",
"j. c #84614C",
"k. c #8A634A",
"l. c #846553",
"z. c #8A6751",
"x. c #836857",
"c. c #8D6A53",
"v. c #806658",
"b. c #856B5C",
"n. c #8D6D5A",
"m. c #916E56",
"M. c #8F715E",
"N. c #92715D",
"B. c #877266",
"V. c #8A7162",
"C. c #907160",
/* pixels */
"                    X X O O + + O o X .                         ",
"                  + & = , , , ; ; & % + o . .                   ",
"              @ = > 3 9 9 0 0 0 8 5 ; = % $ O X .               ",
"            * < 4 4 7 w w q q 7 4 1 1 > - * @ + X .             ",
"          - 6 w w u u t e e e e q q 7 4 1 < : % + X .           ",
"        - 7 t t a a a h s a p p u f u r 7 4 < - # + X .         ",
"      = q t a s s h k c A ) x k a a u e w 7 7 1 : & + X .       ",
"    # 4 t a k c B K H K K b A _ A z s p e w 7 6 1 : & + . .     ",
"    1 t s c c b { +.X.2.1.} } } [ c h p p e q 7 6 5 - @ o .     ",
"  ; u k M I ^ X.,.<.5.q.q.X.n H v c h s a t e q 7 1 - * + . .   ",
"  1 a k J +.u.i.e.-.-.&.( ~ ! Q Y H c g s p a u y 9 6 ; $ o .   ",
"+ 7 s b v T ~ r.r.6.r.&.( =.r.e.t.t.t.[ C M x l u r 6 1 = + . . ",
"% u c { X.-.6.j.l.f.s.s.:.f.( ( #.R Y D c k s p e q 4 > * + X . ",
"= j B T 5.r.l.B.V.n.f.s.f.j.l.x.v.e.,.X.b c s a e q 4 > = # X . ",
"< s v L r.6.s.z.z.z.h.s.s.s.s.f.6.%.' Y v c h s p w 4 2 - # O . ",
"1 V } ^ :.j.z.z.c.n.C.c.d.f.a.( ( E R n v c c s a e w 2 - & O . ",
"< c { ( E f.n.N.m.k.c.m.c.M.M.k.f.f.#.R n v c a a e q 2 > * + X ",
"= s n #.%.%.s.h.h.k.h.h.c.M.V.b.b.x.f.#.W v c k a t q 4 > # + . ",
"* z @.-.f.f.d.h.m.N.m.c.h.f.s.s.a.%.( T ^ K B k k t w 4 > * O . ",
"+ f I ~ %.s.s.d.k.d.h.m.N.h.s.s.%.E R Y v v k s p e q 2 - # O . ",
"  9 J ^ ( %.a.s.d.d.d.k.c.c.z.g.a.E E T v c c k a e 4 2 - # O   ",
"  = k X.-.:.s.s.d.s.d.d.g.j.k.j.*.E E Y n v c k f e q 2 - # X   ",
"  + w J ,.p.j.f.s.z.k.k.k.j.j.:.( E E Y v v k z l r 7 1 = + X   ",
"    : k 1.p.r.*.a.s.k.k.k.g.f.:.E T Y ' { C k a e q 4 > # O     ",
"      7 B W ! %.( ( %.j.V.V.B.x.#.E n v v c g a t 7 1 * @ X     ",
"      % w B J L ! ! %.6.r.;.0./ R T I _ ` z j u w 3 , % o       ",
"        & t M I W ^ X.&.#.! ~ ^ n v I m g p e q 7 5 = @         ",
"          # q s v b L { X.n v c c c s a p t w 7 < - +           ",
"              1 t k M _ I S b h c h a t e q 4 > * +             ",
"                - 7 d k l k k h p t e q 4 1 - # O               ",
"                    & 1 7 q w w q 4 2 > = # +                   ",
"                          # * * # # # +                         "
};
