/* XPM */
static char *a7a8e0305182440be73802cdfa82d2225Pjuk41yXLhPoCgo[] = {
/* columns rows colors chars-per-pixel */
"32 32 172 2 ",
"   c None",
".  c #020101",
"X  c #110D0D",
"o  c #1B1B1B",
"O  c #391A1B",
"+  c #272929",
"@  c #372323",
"#  c #343434",
"$  c #3E3F3F",
"%  c #450000",
"&  c #4D0101",
"*  c #450D0D",
"=  c #530101",
"-  c #5D0101",
";  c #550A0A",
":  c #580A09",
">  c #5F0B1E",
",  c #4C1C1C",
"<  c #630000",
"1  c #6C0001",
"2  c #640B0B",
"3  c #6F0908",
"4  c #720000",
"5  c #7B0101",
"6  c #780909",
"7  c #77090D",
"8  c #690D1A",
"9  c #780D1E",
"0  c #6D1314",
"q  c #761A1A",
"w  c #570D24",
"e  c #4D163B",
"r  c #641E3A",
"t  c #4D2020",
"y  c #4E3636",
"u  c #722827",
"i  c #693131",
"p  c #733838",
"a  c #19326E",
"s  c #323E74",
"d  c #5C3A59",
"f  c #4B4B4B",
"g  c #434342",
"h  c #5A4748",
"j  c #5D5E5E",
"k  c #5A5555",
"l  c #6C4545",
"z  c #724B4B",
"x  c #645454",
"c  c #686969",
"v  c #7D6565",
"b  c gray50",
"n  c #777A7A",
"m  c #840000",
"M  c #8C0101",
"N  c #840A0A",
"B  c #8E0B0A",
"V  c #940101",
"C  c #9C0101",
"Z  c #910A0D",
"A  c #9C0B0B",
"S  c #831111",
"D  c #88151B",
"F  c #981010",
"G  c #961616",
"H  c #A30101",
"J  c #AB0101",
"K  c #A10807",
"L  c #A20D0D",
"P  c #AB0B0B",
"I  c #B30000",
"U  c #BC0101",
"Y  c #BC0B0B",
"T  c #A41413",
"R  c #AD1B1B",
"E  c #B21C1C",
"W  c #B61918",
"Q  c #8C201F",
"!  c #992323",
"~  c #8D3A3A",
"^  c #943535",
"/  c #9F3338",
"(  c #95343C",
")  c #AD2929",
"_  c #A02525",
"`  c #B52928",
"'  c #BB2929",
"]  c #AD3939",
"[  c #B73F3E",
"{  c #C30101",
"}  c #CA0000",
"|  c #CE0708",
" . c #C40B0B",
".. c #D20101",
"X. c #DA0101",
"o. c #D60E0E",
"O. c #DE0E0D",
"+. c #C91313",
"@. c #D61919",
"#. c #E10000",
"$. c #EA0102",
"%. c #E00909",
"&. c #E90D0E",
"*. c #F50000",
"=. c #F00A0A",
"-. c #EC1010",
";. c #F51212",
":. c #C82827",
">. c #C22C2C",
",. c #DF2929",
"<. c #DE2323",
"1. c #C43636",
"2. c #C13938",
"3. c #E63A3A",
"4. c #8D3F4C",
"5. c #834949",
"6. c #8C4757",
"7. c #8B5757",
"8. c #905C5C",
"9. c #A44A49",
"0. c #8F7979",
"q. c #CA4545",
"w. c #C44747",
"e. c #CA5050",
"r. c #C75A59",
"t. c #DD5554",
"y. c #E64F4F",
"u. c #E55F60",
"i. c #CB6363",
"p. c #D26767",
"a. c #D27676",
"s. c #EC6D6D",
"d. c #E56363",
"f. c #F36D6D",
"g. c #EF7F7E",
"h. c #F37574",
"j. c #EC807F",
"k. c #074F9B",
"l. c #114A92",
"z. c #045EB1",
"x. c #0368BD",
"c. c #0374CD",
"v. c #007EDC",
"b. c #009BFF",
"n. c #0194F9",
"m. c #4A9CDE",
"M. c #6EB1E3",
"N. c #828180",
"B. c #979898",
"V. c #BC9393",
"C. c #A5A2A2",
"Z. c #B2AAAA",
"A. c #ADA7B9",
"S. c #B1B2B2",
"D. c #BCBDBD",
"F. c #D78B8B",
"G. c #DF9797",
"H. c #D59897",
"J. c #DD9898",
"K. c #ED8584",
"L. c #F78D8C",
"P. c #F29090",
"I. c #EFACAC",
"U. c #F1A3A2",
"Y. c #F2B5B5",
"T. c #C2C3C3",
"R. c #DACFCF",
"E. c gainsboro",
"W. c #E8DFDF",
"Q. c #EDEDED",
"!. c #E3E5E5",
"~. c white",
/* pixels */
"                              t.@.                              ",
"                          d.I.Y.@.}  .                          ",
"                        j.Y.U.d.o.} { U                         ",
"                      K.P.3.%.X.} } { U I P                     ",
"                  3.g.f.-.$.#.X...} { I I J L                   ",
"                  f.f.=.$.$.#.X...} U U J H C F                 ",
"                y.h.;.*.*.$.#.X.} { U I J J V V                 ",
"              y V.L.,.X.$.&.@.+. .{ I J T ! q * h               ",
"              j !.Q.k O 8.r.] 4.r 9 C : 0.Z.j . $               ",
"            T.C.E.S.# + 7.4.A.m.c.k.e m v D.0.o # o             ",
"            R.n f S.D.C.] 6.M.n.b.v.a Z , f # c j X             ",
"            q.~ l W.~.Q./ D s z.x.l.d q @ . . x z ;             ",
"            ,.O.o.3.s.a.0 m 5 > w 8 0 u 5.& - 3 1 1             ",
"            @.X.X.X.X.X.{ U J C V M M V M m 5 4 1 <             ",
"            o.X.X.X.} } { U U J J H C M m 5 4 4 1 <             ",
"            | } } } } { U U I J C C M M m 5 4 1 < -             ",
"             .} } { { U U J J W C V M m 5 4 1 1 < -             ",
"    1.      Y U { U U I I J H ' Z m m 5 4 4 1 1 < :       Y     ",
"  p.F.      L H J I J I J H C ' B 4 5 5 4 1 1 < - 2       J Y   ",
">.G.H.G     2 m V H J J H C C ` B 4 4 4 4 1 < < - ;     6 H U +.",
"q.G.) m 1 = = 4 5 V C H C V V ` B 4 1 4 1 1 < - = % % = 5 J U  .",
"e.a.C m 1 = % - 4 5 M V V V M ` B 1 4 4 1 < < - = % & - M J U { ",
"q.r.H M 1 = & & 1 4 5 m m m m ` B 4 4 1 < < - - = % = 1 C I U U ",
">.w.H M 5 < & % = < 1 4 5 4 5 ) B 1 1 < < - - = % & = 5 J I J P ",
"E 1.P V m 1 - & = < < < 1 < 1 ! N 1 1 < - - = & % = 4 V I J J L ",
"  ' E H V 5 1 -   2 - < < - - ! 6 < = = = = :   & 1 M I I J K   ",
"  E ` J C M 6       2 < - - - D 3 = = & = &       M J I I J L   ",
"    T P J V M         u p p i ^ 2 , t , ,         K J J J K     ",
"    T K J C V           B.B.0.9.0 f f g           L H J C L     ",
"      P J C A                 9.S                 L C C C       ",
"      L H H T                 1.S                 A C V A       ",
"      C C C T                .:.N :                 V V C       "
};
