/* XPM */
static char *_a6e416858734399c2beed84af2e0af1xIWJa6MfYfjFdtuC[] = {
/* columns rows colors chars-per-pixel */
"32 32 185 2 ",
"   c None",
".  c #271B18",
"X  c #291C1A",
"o  c #381D16",
"O  c #39241F",
"+  c #3F2621",
"@  c #51281E",
"#  c #592B1F",
"$  c #6A210F",
"%  c #6A2619",
"&  c #772D1C",
"*  c #7D301C",
"=  c #5E2C22",
"-  c #4E3024",
";  c #573E38",
":  c #672D21",
">  c #6A3B27",
",  c #773120",
"<  c #783726",
"1  c #753926",
"2  c #51423C",
"3  c #76432D",
"4  c #66443C",
"5  c #794A3D",
"6  c #4C4642",
"7  c #5A4E49",
"8  c #5E534D",
"9  c #704F46",
"0  c #7C4D42",
"q  c #6F534A",
"w  c #61554F",
"e  c #75564E",
"r  c #7E564C",
"t  c #7D5046",
"y  c #6A5953",
"u  c #665C56",
"i  c #785A50",
"p  c #705A52",
"a  c #6E615B",
"s  c #786359",
"d  c #716760",
"f  c #8A3C2A",
"g  c #973821",
"h  c #8C4426",
"j  c #83432B",
"k  c #8C442B",
"l  c #87482B",
"z  c #8A482E",
"x  c #994928",
"c  c #9C542D",
"v  c #8C4C3C",
"b  c #884A32",
"n  c #9C4930",
"m  c #944B33",
"M  c #815339",
"N  c #90553F",
"B  c #93583E",
"V  c #A8482B",
"C  c #BE4723",
"Z  c #A9582E",
"A  c #A1582D",
"S  c #B65A2E",
"D  c #AA5732",
"F  c #AD5C35",
"G  c #B4523B",
"H  c #AB6537",
"J  c #BB743A",
"K  c #C2491F",
"L  c #C55025",
"P  c #D45528",
"I  c #C25037",
"U  c #C3583F",
"Y  c #DE5F3A",
"T  c #DE642F",
"R  c #C56935",
"E  c #D76039",
"W  c #DB6E36",
"Q  c #CC7C3E",
"!  c #D67938",
"~  c #DD7C3E",
"^  c #E4602B",
"/  c #FF722B",
"(  c #EC6937",
")  c #FF7F34",
"_  c #F37A3A",
"`  c #8B564A",
"'  c #87584C",
"]  c #985648",
"[  c #945D4D",
"{  c #995243",
"}  c #935F51",
"|  c #A45F4C",
" . c #AC5641",
".. c #816056",
"X. c #976154",
"o. c #AD694B",
"O. c #BB614B",
"+. c #B46349",
"@. c #B86750",
"#. c #C5684B",
"$. c #D66744",
"%. c #C97841",
"&. c #E9724E",
"*. c #E27148",
"=. c #FB7D4E",
"-. c #E7893C",
";. c #FF803A",
":. c #FF8839",
">. c #FF913D",
",. c #FF9B3D",
"<. c #CC8345",
"1. c #DF8441",
"2. c #DA8945",
"3. c #DF8449",
"4. c #DB9149",
"5. c #E58F46",
"6. c #F28A43",
"7. c #FF8D41",
"8. c #FB8749",
"9. c #EF9D4D",
"0. c #F69546",
"q. c #FF9740",
"w. c #FF9548",
"e. c #F79848",
"r. c #FE9D4C",
"t. c #F59B47",
"y. c #E78259",
"u. c #FF995B",
"i. c #FC9556",
"p. c #FEA34C",
"a. c #FFAA4F",
"s. c #FAA648",
"d. c #FFB34C",
"f. c #FEAC54",
"g. c #FFA25C",
"h. c #EABC59",
"j. c #FFB652",
"k. c #FFBE5D",
"l. c #FFB954",
"z. c #FFB665",
"x. c #FFC756",
"c. c #FEC65B",
"v. c #FFC95F",
"b. c #F6C25D",
"n. c #FFD45C",
"m. c #FFE65E",
"M. c #FFCE64",
"N. c #FFC76C",
"B. c #FFD067",
"V. c #FFDF61",
"C. c #FFDB6A",
"Z. c #EBC179",
"A. c #FFD874",
"S. c #FFE562",
"D. c #FFE16D",
"F. c #FFEB6A",
"G. c #FFF36E",
"H. c #FFFD6F",
"J. c #FFE97E",
"K. c #FFE974",
"L. c #FFF471",
"P. c #FFFF74",
"I. c #FFFE7B",
"U. c #FCDD84",
"Y. c #FFE884",
"T. c #FFF781",
"R. c #FFFB80",
"E. c #FFFE8B",
"W. c #FFF48B",
"Q. c #FFED9F",
"!. c #FFEB92",
"~. c #FFFF92",
"^. c #FFFF9C",
"/. c #FFF5A7",
"(. c #FFFFA4",
"). c #FFFFAA",
"_. c #FFFFB6",
"`. c #FFFFBB",
"'. c #FFFEC3",
"]. c #FFFFCB",
"[. c #FFFFD5",
"{. c #FFFFDC",
"}. c #FFFFE2",
"|. c #FFFFF2",
" X c white",
/* pixels */
"                                                                ",
"                                                                ",
"                                                                ",
"                                                                ",
"                            } ..        w                       ",
"                              ] [ u   y e r                     ",
"                              ] u.0 i y ' r                     ",
"                          d u ` N.` 9 r ` +.e                   ",
"                        u | #.O.y.e   9 #.i.0                   ",
"                      X.[ $.u.A.*.7     +.8.4                   ",
"                    s @.=.I $.*.B 6   y [ o.2                   ",
"                    } N.i.b m f 5 6 8 ' &.o.4                   ",
"                    &.J.V b 1 k b 2 F z.G { 2                   ",
"                    U Y V V R g h z n c.D <                     ",
"                    5 5.P ^ L C >.p.w.B.j.*                     ",
"                    v 7.>.d.n.s.S.n.f.E.I.K                     ",
"                    E E.:.H.R.S.P.I.a.E.^.,.%                   ",
"                    F.I./ m._.P.H.~.x.'.`.;.o                   ",
"                    ) ).>.v.(.~.c.E.C.^. Xs.                    ",
"                  O.r._.B.^.}.[.T.L.^._ Y.E.$                   ",
"                  i.J.'.E.[.|.}.W.v.'.!.k.f.F.                  ",
"                  ^._.'.).~.U.D.F.6.Y.j.r.f.'.+                 ",
"                  ^.'.~.M.d.0.e.h.s.L.! S e.`.,                 ",
"                  C.(./.Z.c.Z D.l.j.B.m x -.].T                 ",
"                  T.^.'.`.2.~ b.D k.Q.D A @ {.W                 ",
"                  ~.K.J.9.: 3 r.t.-.2.<.l %.).=                 ",
"                  ( 8.W.# O k - 0.j h C.4.5._                   ",
"                      6.Q + > z H 1 U.v.R &                     ",
"                        S c f J `.p.r.&                         ",
"                            . O = .                             ",
"                                                                ",
"                                                                "
};
